<?xml version="1.0" encoding="UTF-8"?>
<!DOCTYPE svg PUBLIC "-//W3C//DTD SVG 1.1//EN" "http://www.w3.org/Graphics/SVG/1.1/DTD/svg11.dtd">
<svg xmlns="http://www.w3.org/2000/svg" version="1.1" width="128px" height="128px" style="shape-rendering:geometricPrecision; text-rendering:geometricPrecision; image-rendering:optimizeQuality; fill-rule:evenodd; clip-rule:evenodd" xmlns:xlink="http://www.w3.org/1999/xlink">
<g><path style="opacity:1" fill="#2c3f8a" d="M 66.5,9.5 C 67.6385,12.0862 69.6385,13.7529 72.5,14.5C 77.4378,17.9404 81.1045,22.4404 83.5,28C 53.3699,31.6303 36.3699,48.4637 32.5,78.5C 32.2732,82.1616 31.9398,85.8282 31.5,89.5C 28.8187,89.5379 26.3187,88.8713 24,87.5C 15.9027,90.0284 7.73607,91.0284 -0.5,90.5C -0.5,87.5 -0.5,84.5 -0.5,81.5C 1.24637,76.4281 2.24637,71.0947 2.5,65.5C 3.88516,64.0527 3.55182,63.0527 1.5,62.5C 1.20414,60.597 0.53747,58.9303 -0.5,57.5C -0.5,50.8333 -0.5,44.1667 -0.5,37.5C 1.30925,31.9364 3.80925,26.6031 7,21.5C 9.0367,19.2941 11.2034,17.2941 13.5,15.5C 15.4783,15.2623 17.1449,13.9289 18.5,11.5C 25.696,5.65813 34.0293,2.99146 43.5,3.5C 51.7997,3.22444 59.4664,5.22444 66.5,9.5 Z"/></g>
<g><path style="opacity:0.851" fill="#ab9f6e" d="M 66.5,9.5 C 68.9095,10.7007 70.9095,12.3674 72.5,14.5C 69.6385,13.7529 67.6385,12.0862 66.5,9.5 Z"/></g>
<g><path style="opacity:0.996" fill="#759646" d="M 18.5,11.5 C 17.1449,13.9289 15.4783,15.2623 13.5,15.5C 14.5846,13.4131 16.2512,12.0798 18.5,11.5 Z"/></g>
<g><path style="opacity:1" fill="#283d8a" d="M 127.5,70.5 C 127.5,76.5 127.5,82.5 127.5,88.5C 123.741,96.7949 123.741,105.128 127.5,113.5C 127.5,116.5 127.5,119.5 127.5,122.5C 119.264,123.028 111.097,122.028 103,119.5C 86.5106,126.13 71.0106,124.463 56.5,114.5C 55.8333,111.833 54.1667,110.167 51.5,109.5C 50.8333,109.5 50.5,109.167 50.5,108.5C 50.573,106.973 49.9063,105.973 48.5,105.5C 48.573,103.973 47.9063,102.973 46.5,102.5C 42.8956,97.8768 40.7289,92.5434 40,86.5C 38.1754,60.0009 50.0088,43.1675 75.5,36C 102.084,33.7759 119.417,45.2759 127.5,70.5 Z"/></g>
<g><path style="opacity:0.988" fill="#a5df71" d="M 1.5,62.5 C 3.55182,63.0527 3.88516,64.0527 2.5,65.5C 2.44312,64.391 2.10978,63.391 1.5,62.5 Z"/></g>
<g><path style="opacity:0.427" fill="#98bf7f" d="M 32.5,78.5 C 32.8297,81.157 33.163,83.8236 33.5,86.5C 33.1667,87.8333 32.8333,89.1667 32.5,90.5C 31.8933,90.3764 31.56,90.0431 31.5,89.5C 31.9398,85.8282 32.2732,82.1616 32.5,78.5 Z"/></g>
<g><path style="opacity:0.141" fill="#82e846" d="M 46.5,102.5 C 47.9063,102.973 48.573,103.973 48.5,105.5C 47.0937,105.027 46.427,104.027 46.5,102.5 Z"/></g>
<g><path style="opacity:0.035" fill="#82da61" d="M 48.5,105.5 C 49.9063,105.973 50.573,106.973 50.5,108.5C 49.0937,108.027 48.427,107.027 48.5,105.5 Z"/></g>
<g><path style="opacity:0.922" fill="#7fb56b" d="M 51.5,109.5 C 54.1667,110.167 55.8333,111.833 56.5,114.5C 54.5,113.167 52.8333,111.5 51.5,109.5 Z"/></g>
</svg>
